<mxfile host="Electron" modified="2024-07-06T14:10:26.182Z" agent="Mozilla/5.0 (Windows NT 10.0; Win64; x64) AppleWebKit/537.36 (KHTML, like Gecko) draw.io/24.4.13 Chrome/124.0.6367.207 Electron/30.0.6 Safari/537.36" etag="plH-SvzlA3EpG2kz5Ez_" version="24.4.13" type="device">
  <diagram name="Page-1" id="Xse8WK59IOAnQLQ-py6_">
    <mxGraphModel dx="2045" dy="697" grid="1" gridSize="5" guides="0" tooltips="1" connect="0" arrows="0" fold="1" page="1" pageScale="1" pageWidth="850" pageHeight="1100" math="0" shadow="0">
      <root>
        <mxCell id="0" />
        <mxCell id="1" parent="0" />
        <mxCell id="A7GeoqtOZgdvH2nWiJJF-114" value="" style="whiteSpace=wrap;html=1;aspect=fixed;strokeColor=none;gradientColor=#B3B3B3;fillColor=#CCCCCC;" parent="1" vertex="1">
          <mxGeometry x="-160" y="490" width="50" height="50" as="geometry" />
        </mxCell>
        <mxCell id="CC8q0QYBSkZl_h8TiPGs-127" value="" style="rounded=0;whiteSpace=wrap;html=1;strokeColor=#00CC00;strokeWidth=0.5;fillColor=#00cc00;" parent="1" vertex="1">
          <mxGeometry x="-335" y="465" width="25" height="25" as="geometry" />
        </mxCell>
        <mxCell id="CC8q0QYBSkZl_h8TiPGs-384" value="" style="rounded=0;whiteSpace=wrap;html=1;strokeColor=#00CC00;strokeWidth=0.5;fillColor=#00cc00;" parent="1" vertex="1">
          <mxGeometry x="-335" y="490" width="175" height="50" as="geometry" />
        </mxCell>
        <mxCell id="CC8q0QYBSkZl_h8TiPGs-385" value="" style="rounded=0;whiteSpace=wrap;html=1;strokeColor=#00CC00;strokeWidth=0.5;fillColor=#00cc00;" parent="1" vertex="1">
          <mxGeometry x="-310" y="415" width="25" height="25" as="geometry" />
        </mxCell>
        <mxCell id="CC8q0QYBSkZl_h8TiPGs-386" value="" style="rounded=0;whiteSpace=wrap;html=1;strokeColor=#00CC00;strokeWidth=0.5;fillColor=#00cc00;" parent="1" vertex="1">
          <mxGeometry x="-235" y="390" width="25" height="50" as="geometry" />
        </mxCell>
        <mxCell id="CC8q0QYBSkZl_h8TiPGs-388" value="" style="rounded=0;whiteSpace=wrap;html=1;strokeColor=#00CC00;strokeWidth=0.5;fillColor=#00cc00;" parent="1" vertex="1">
          <mxGeometry x="-235" y="465" width="25" height="25" as="geometry" />
        </mxCell>
        <mxCell id="CC8q0QYBSkZl_h8TiPGs-389" value="" style="rounded=0;whiteSpace=wrap;html=1;strokeColor=#00CC00;strokeWidth=0.5;fillColor=#00cc00;" parent="1" vertex="1">
          <mxGeometry x="-210" y="440" width="150" height="50" as="geometry" />
        </mxCell>
        <mxCell id="CC8q0QYBSkZl_h8TiPGs-390" value="" style="rounded=0;whiteSpace=wrap;html=1;strokeColor=#00CC00;strokeWidth=0.5;fillColor=#00cc00;" parent="1" vertex="1">
          <mxGeometry x="-110" y="415" width="50" height="25" as="geometry" />
        </mxCell>
        <mxCell id="CC8q0QYBSkZl_h8TiPGs-391" value="" style="rounded=0;whiteSpace=wrap;html=1;strokeColor=#00CC00;strokeWidth=0.5;fillColor=#00cc00;" parent="1" vertex="1">
          <mxGeometry x="-60" y="465" width="25" height="75" as="geometry" />
        </mxCell>
        <mxCell id="CC8q0QYBSkZl_h8TiPGs-393" value="" style="rounded=0;whiteSpace=wrap;html=1;strokeColor=#00CC00;strokeWidth=0.5;fillColor=#00cc00;" parent="1" vertex="1">
          <mxGeometry x="-160" y="490" width="25" height="25" as="geometry" />
        </mxCell>
        <mxCell id="CC8q0QYBSkZl_h8TiPGs-394" value="" style="rounded=0;whiteSpace=wrap;html=1;strokeColor=#FFFF00;strokeWidth=0.5;fillColor=#ffff00;" parent="1" vertex="1">
          <mxGeometry x="-160" y="515" width="25" height="25" as="geometry" />
        </mxCell>
        <mxCell id="CC8q0QYBSkZl_h8TiPGs-395" value="" style="rounded=0;whiteSpace=wrap;html=1;strokeColor=#00CC00;strokeWidth=0.5;fillColor=#00cc00;" parent="1" vertex="1">
          <mxGeometry x="-135" y="540" width="75" height="25" as="geometry" />
        </mxCell>
        <mxCell id="CC8q0QYBSkZl_h8TiPGs-396" value="" style="rounded=0;whiteSpace=wrap;html=1;strokeColor=#00CC00;strokeWidth=0.5;fillColor=#00cc00;" parent="1" vertex="1">
          <mxGeometry x="-310" y="565" width="250" height="50" as="geometry" />
        </mxCell>
        <mxCell id="CC8q0QYBSkZl_h8TiPGs-397" value="" style="rounded=0;whiteSpace=wrap;html=1;strokeColor=#00CC00;strokeWidth=0.5;fillColor=#00cc00;" parent="1" vertex="1">
          <mxGeometry x="-285" y="615" width="200" height="25" as="geometry" />
        </mxCell>
        <mxCell id="CC8q0QYBSkZl_h8TiPGs-398" value="" style="rounded=0;whiteSpace=wrap;html=1;strokeColor=#00CC00;strokeWidth=0.5;fillColor=#00cc00;" parent="1" vertex="1">
          <mxGeometry x="-235" y="640" width="100" height="25" as="geometry" />
        </mxCell>
        <mxCell id="CC8q0QYBSkZl_h8TiPGs-392" value="" style="rounded=0;whiteSpace=wrap;html=1;strokeColor=#00CC00;strokeWidth=0.5;fillColor=#00cc00;" parent="1" vertex="1">
          <mxGeometry x="-135" y="490" width="75" height="50" as="geometry" />
        </mxCell>
        <mxCell id="wF1ciALJRRrJ7pzbPHmN-1" value="" style="rounded=0;whiteSpace=wrap;html=1;fillColor=none;" vertex="1" parent="1">
          <mxGeometry x="-360" y="340" width="400" height="400" as="geometry" />
        </mxCell>
        <mxCell id="wF1ciALJRRrJ7pzbPHmN-3" value="" style="endArrow=none;html=1;rounded=0;" edge="1" parent="1">
          <mxGeometry width="50" height="50" relative="1" as="geometry">
            <mxPoint x="-10" y="740" as="sourcePoint" />
            <mxPoint x="-10" y="340" as="targetPoint" />
          </mxGeometry>
        </mxCell>
        <mxCell id="wF1ciALJRRrJ7pzbPHmN-4" value="" style="endArrow=none;html=1;rounded=0;" edge="1" parent="1">
          <mxGeometry width="50" height="50" relative="1" as="geometry">
            <mxPoint x="-35" y="740" as="sourcePoint" />
            <mxPoint x="-35" y="340" as="targetPoint" />
          </mxGeometry>
        </mxCell>
        <mxCell id="wF1ciALJRRrJ7pzbPHmN-5" value="" style="endArrow=none;html=1;rounded=0;" edge="1" parent="1">
          <mxGeometry width="50" height="50" relative="1" as="geometry">
            <mxPoint x="-60" y="740" as="sourcePoint" />
            <mxPoint x="-60" y="340" as="targetPoint" />
          </mxGeometry>
        </mxCell>
        <mxCell id="wF1ciALJRRrJ7pzbPHmN-6" value="" style="endArrow=none;html=1;rounded=0;" edge="1" parent="1">
          <mxGeometry width="50" height="50" relative="1" as="geometry">
            <mxPoint x="-85" y="740" as="sourcePoint" />
            <mxPoint x="-85" y="340" as="targetPoint" />
          </mxGeometry>
        </mxCell>
        <mxCell id="wF1ciALJRRrJ7pzbPHmN-7" value="" style="endArrow=none;html=1;rounded=0;" edge="1" parent="1">
          <mxGeometry width="50" height="50" relative="1" as="geometry">
            <mxPoint x="-110" y="740" as="sourcePoint" />
            <mxPoint x="-110" y="340" as="targetPoint" />
          </mxGeometry>
        </mxCell>
        <mxCell id="wF1ciALJRRrJ7pzbPHmN-8" value="" style="endArrow=none;html=1;rounded=0;" edge="1" parent="1">
          <mxGeometry width="50" height="50" relative="1" as="geometry">
            <mxPoint x="-135" y="740" as="sourcePoint" />
            <mxPoint x="-135" y="340" as="targetPoint" />
          </mxGeometry>
        </mxCell>
        <mxCell id="wF1ciALJRRrJ7pzbPHmN-9" value="" style="endArrow=none;html=1;rounded=0;" edge="1" parent="1">
          <mxGeometry width="50" height="50" relative="1" as="geometry">
            <mxPoint x="-160" y="740" as="sourcePoint" />
            <mxPoint x="-160" y="340" as="targetPoint" />
          </mxGeometry>
        </mxCell>
        <mxCell id="wF1ciALJRRrJ7pzbPHmN-10" value="" style="endArrow=none;html=1;rounded=0;" edge="1" parent="1">
          <mxGeometry width="50" height="50" relative="1" as="geometry">
            <mxPoint x="-185" y="740" as="sourcePoint" />
            <mxPoint x="-185" y="340" as="targetPoint" />
          </mxGeometry>
        </mxCell>
        <mxCell id="wF1ciALJRRrJ7pzbPHmN-11" value="" style="endArrow=none;html=1;rounded=0;" edge="1" parent="1">
          <mxGeometry width="50" height="50" relative="1" as="geometry">
            <mxPoint x="-210" y="740" as="sourcePoint" />
            <mxPoint x="-210" y="340" as="targetPoint" />
          </mxGeometry>
        </mxCell>
        <mxCell id="wF1ciALJRRrJ7pzbPHmN-12" value="" style="endArrow=none;html=1;rounded=0;" edge="1" parent="1">
          <mxGeometry width="50" height="50" relative="1" as="geometry">
            <mxPoint x="-235" y="740" as="sourcePoint" />
            <mxPoint x="-235" y="340" as="targetPoint" />
          </mxGeometry>
        </mxCell>
        <mxCell id="wF1ciALJRRrJ7pzbPHmN-13" value="" style="endArrow=none;html=1;rounded=0;" edge="1" parent="1">
          <mxGeometry width="50" height="50" relative="1" as="geometry">
            <mxPoint x="-260" y="740" as="sourcePoint" />
            <mxPoint x="-260" y="340" as="targetPoint" />
          </mxGeometry>
        </mxCell>
        <mxCell id="wF1ciALJRRrJ7pzbPHmN-14" value="" style="endArrow=none;html=1;rounded=0;" edge="1" parent="1">
          <mxGeometry width="50" height="50" relative="1" as="geometry">
            <mxPoint x="-285" y="740" as="sourcePoint" />
            <mxPoint x="-285" y="340" as="targetPoint" />
          </mxGeometry>
        </mxCell>
        <mxCell id="wF1ciALJRRrJ7pzbPHmN-15" value="" style="endArrow=none;html=1;rounded=0;" edge="1" parent="1">
          <mxGeometry width="50" height="50" relative="1" as="geometry">
            <mxPoint x="-310" y="740" as="sourcePoint" />
            <mxPoint x="-310" y="340" as="targetPoint" />
          </mxGeometry>
        </mxCell>
        <mxCell id="wF1ciALJRRrJ7pzbPHmN-16" value="" style="endArrow=none;html=1;rounded=0;" edge="1" parent="1">
          <mxGeometry width="50" height="50" relative="1" as="geometry">
            <mxPoint x="-335" y="740" as="sourcePoint" />
            <mxPoint x="-335" y="340" as="targetPoint" />
          </mxGeometry>
        </mxCell>
        <mxCell id="wF1ciALJRRrJ7pzbPHmN-34" value="" style="endArrow=none;html=1;rounded=0;" edge="1" parent="1">
          <mxGeometry width="50" height="50" relative="1" as="geometry">
            <mxPoint x="-360" y="365" as="sourcePoint" />
            <mxPoint x="40" y="365" as="targetPoint" />
          </mxGeometry>
        </mxCell>
        <mxCell id="wF1ciALJRRrJ7pzbPHmN-51" value="" style="endArrow=none;html=1;rounded=0;" edge="1" parent="1">
          <mxGeometry width="50" height="50" relative="1" as="geometry">
            <mxPoint x="15" y="740" as="sourcePoint" />
            <mxPoint x="15" y="340" as="targetPoint" />
          </mxGeometry>
        </mxCell>
        <mxCell id="wF1ciALJRRrJ7pzbPHmN-52" value="" style="endArrow=none;html=1;rounded=0;" edge="1" parent="1">
          <mxGeometry width="50" height="50" relative="1" as="geometry">
            <mxPoint x="-360" y="390" as="sourcePoint" />
            <mxPoint x="40" y="390" as="targetPoint" />
          </mxGeometry>
        </mxCell>
        <mxCell id="wF1ciALJRRrJ7pzbPHmN-53" value="" style="endArrow=none;html=1;rounded=0;" edge="1" parent="1">
          <mxGeometry width="50" height="50" relative="1" as="geometry">
            <mxPoint x="-360" y="440" as="sourcePoint" />
            <mxPoint x="40" y="440" as="targetPoint" />
          </mxGeometry>
        </mxCell>
        <mxCell id="wF1ciALJRRrJ7pzbPHmN-54" value="" style="endArrow=none;html=1;rounded=0;" edge="1" parent="1">
          <mxGeometry width="50" height="50" relative="1" as="geometry">
            <mxPoint x="-360" y="415" as="sourcePoint" />
            <mxPoint x="40" y="415" as="targetPoint" />
          </mxGeometry>
        </mxCell>
        <mxCell id="wF1ciALJRRrJ7pzbPHmN-55" value="" style="endArrow=none;html=1;rounded=0;" edge="1" parent="1">
          <mxGeometry width="50" height="50" relative="1" as="geometry">
            <mxPoint x="-360" y="540" as="sourcePoint" />
            <mxPoint x="40" y="540" as="targetPoint" />
          </mxGeometry>
        </mxCell>
        <mxCell id="wF1ciALJRRrJ7pzbPHmN-56" value="" style="endArrow=none;html=1;rounded=0;" edge="1" parent="1">
          <mxGeometry width="50" height="50" relative="1" as="geometry">
            <mxPoint x="-360" y="515" as="sourcePoint" />
            <mxPoint x="40" y="515" as="targetPoint" />
          </mxGeometry>
        </mxCell>
        <mxCell id="wF1ciALJRRrJ7pzbPHmN-57" value="" style="endArrow=none;html=1;rounded=0;" edge="1" parent="1">
          <mxGeometry width="50" height="50" relative="1" as="geometry">
            <mxPoint x="-360" y="465" as="sourcePoint" />
            <mxPoint x="40" y="465" as="targetPoint" />
          </mxGeometry>
        </mxCell>
        <mxCell id="wF1ciALJRRrJ7pzbPHmN-58" value="" style="endArrow=none;html=1;rounded=0;" edge="1" parent="1">
          <mxGeometry width="50" height="50" relative="1" as="geometry">
            <mxPoint x="-360" y="665" as="sourcePoint" />
            <mxPoint x="40" y="665" as="targetPoint" />
          </mxGeometry>
        </mxCell>
        <mxCell id="wF1ciALJRRrJ7pzbPHmN-59" value="" style="endArrow=none;html=1;rounded=0;" edge="1" parent="1">
          <mxGeometry width="50" height="50" relative="1" as="geometry">
            <mxPoint x="-360" y="640" as="sourcePoint" />
            <mxPoint x="40" y="640" as="targetPoint" />
          </mxGeometry>
        </mxCell>
        <mxCell id="wF1ciALJRRrJ7pzbPHmN-60" value="" style="endArrow=none;html=1;rounded=0;" edge="1" parent="1">
          <mxGeometry width="50" height="50" relative="1" as="geometry">
            <mxPoint x="-360" y="590" as="sourcePoint" />
            <mxPoint x="40" y="590" as="targetPoint" />
          </mxGeometry>
        </mxCell>
        <mxCell id="wF1ciALJRRrJ7pzbPHmN-61" value="" style="endArrow=none;html=1;rounded=0;" edge="1" parent="1">
          <mxGeometry width="50" height="50" relative="1" as="geometry">
            <mxPoint x="-360" y="565" as="sourcePoint" />
            <mxPoint x="40" y="565" as="targetPoint" />
          </mxGeometry>
        </mxCell>
        <mxCell id="wF1ciALJRRrJ7pzbPHmN-62" value="" style="endArrow=none;html=1;rounded=0;" edge="1" parent="1">
          <mxGeometry width="50" height="50" relative="1" as="geometry">
            <mxPoint x="-360" y="715" as="sourcePoint" />
            <mxPoint x="40" y="715" as="targetPoint" />
          </mxGeometry>
        </mxCell>
        <mxCell id="wF1ciALJRRrJ7pzbPHmN-63" value="" style="endArrow=none;html=1;rounded=0;" edge="1" parent="1">
          <mxGeometry width="50" height="50" relative="1" as="geometry">
            <mxPoint x="-360" y="690" as="sourcePoint" />
            <mxPoint x="40" y="690" as="targetPoint" />
          </mxGeometry>
        </mxCell>
        <mxCell id="wF1ciALJRRrJ7pzbPHmN-64" value="" style="endArrow=none;html=1;rounded=0;" edge="1" parent="1">
          <mxGeometry width="50" height="50" relative="1" as="geometry">
            <mxPoint x="-360" y="615" as="sourcePoint" />
            <mxPoint x="40" y="615" as="targetPoint" />
          </mxGeometry>
        </mxCell>
        <mxCell id="wF1ciALJRRrJ7pzbPHmN-65" value="" style="endArrow=none;html=1;rounded=0;" edge="1" parent="1">
          <mxGeometry width="50" height="50" relative="1" as="geometry">
            <mxPoint x="-360" y="490" as="sourcePoint" />
            <mxPoint x="40" y="490" as="targetPoint" />
          </mxGeometry>
        </mxCell>
        <mxCell id="wF1ciALJRRrJ7pzbPHmN-67" value="" style="ellipse;whiteSpace=wrap;html=1;fillColor=#00CC00;" vertex="1" parent="1">
          <mxGeometry x="-580" y="595" width="20" height="20" as="geometry" />
        </mxCell>
        <mxCell id="wF1ciALJRRrJ7pzbPHmN-83" value="" style="endArrow=none;html=1;rounded=0;" edge="1" parent="1">
          <mxGeometry width="50" height="50" relative="1" as="geometry">
            <mxPoint x="-580" y="625" as="sourcePoint" />
            <mxPoint x="-570" y="615" as="targetPoint" />
          </mxGeometry>
        </mxCell>
        <mxCell id="wF1ciALJRRrJ7pzbPHmN-85" value="" style="endArrow=none;html=1;rounded=0;" edge="1" parent="1">
          <mxGeometry width="50" height="50" relative="1" as="geometry">
            <mxPoint x="-560" y="625" as="sourcePoint" />
            <mxPoint x="-570" y="615" as="targetPoint" />
          </mxGeometry>
        </mxCell>
        <mxCell id="wF1ciALJRRrJ7pzbPHmN-86" value="..." style="text;html=1;align=center;verticalAlign=middle;whiteSpace=wrap;rounded=0;fontFamily=&quot;Latin Modern Mono 12&quot;;fontSize=12;fontStyle=1" vertex="1" parent="1">
          <mxGeometry x="-580" y="620" width="20" height="15" as="geometry" />
        </mxCell>
        <mxCell id="wF1ciALJRRrJ7pzbPHmN-87" value="" style="ellipse;whiteSpace=wrap;html=1;" vertex="1" parent="1">
          <mxGeometry x="-555" y="595" width="20" height="20" as="geometry" />
        </mxCell>
        <mxCell id="wF1ciALJRRrJ7pzbPHmN-88" value="" style="endArrow=none;html=1;rounded=0;" edge="1" parent="1">
          <mxGeometry width="50" height="50" relative="1" as="geometry">
            <mxPoint x="-555" y="625" as="sourcePoint" />
            <mxPoint x="-545" y="615" as="targetPoint" />
          </mxGeometry>
        </mxCell>
        <mxCell id="wF1ciALJRRrJ7pzbPHmN-89" value="" style="endArrow=none;html=1;rounded=0;" edge="1" parent="1">
          <mxGeometry width="50" height="50" relative="1" as="geometry">
            <mxPoint x="-535" y="625" as="sourcePoint" />
            <mxPoint x="-545" y="615" as="targetPoint" />
          </mxGeometry>
        </mxCell>
        <mxCell id="wF1ciALJRRrJ7pzbPHmN-90" value="..." style="text;html=1;align=center;verticalAlign=middle;whiteSpace=wrap;rounded=0;fontFamily=&quot;Latin Modern Mono 12&quot;;fontSize=12;fontStyle=1" vertex="1" parent="1">
          <mxGeometry x="-555" y="620" width="20" height="15" as="geometry" />
        </mxCell>
        <mxCell id="wF1ciALJRRrJ7pzbPHmN-91" value="" style="ellipse;whiteSpace=wrap;html=1;" vertex="1" parent="1">
          <mxGeometry x="-530" y="595" width="20" height="20" as="geometry" />
        </mxCell>
        <mxCell id="wF1ciALJRRrJ7pzbPHmN-92" value="" style="endArrow=none;html=1;rounded=0;" edge="1" parent="1">
          <mxGeometry width="50" height="50" relative="1" as="geometry">
            <mxPoint x="-530" y="625" as="sourcePoint" />
            <mxPoint x="-520" y="615" as="targetPoint" />
          </mxGeometry>
        </mxCell>
        <mxCell id="wF1ciALJRRrJ7pzbPHmN-93" value="" style="endArrow=none;html=1;rounded=0;" edge="1" parent="1">
          <mxGeometry width="50" height="50" relative="1" as="geometry">
            <mxPoint x="-510" y="625" as="sourcePoint" />
            <mxPoint x="-520" y="615" as="targetPoint" />
          </mxGeometry>
        </mxCell>
        <mxCell id="wF1ciALJRRrJ7pzbPHmN-94" value="..." style="text;html=1;align=center;verticalAlign=middle;whiteSpace=wrap;rounded=0;fontFamily=&quot;Latin Modern Mono 12&quot;;fontSize=12;fontStyle=1" vertex="1" parent="1">
          <mxGeometry x="-530" y="620" width="20" height="15" as="geometry" />
        </mxCell>
        <mxCell id="wF1ciALJRRrJ7pzbPHmN-95" value="" style="ellipse;whiteSpace=wrap;html=1;" vertex="1" parent="1">
          <mxGeometry x="-505" y="595" width="20" height="20" as="geometry" />
        </mxCell>
        <mxCell id="wF1ciALJRRrJ7pzbPHmN-96" value="" style="endArrow=none;html=1;rounded=0;" edge="1" parent="1">
          <mxGeometry width="50" height="50" relative="1" as="geometry">
            <mxPoint x="-505" y="625" as="sourcePoint" />
            <mxPoint x="-495" y="615" as="targetPoint" />
          </mxGeometry>
        </mxCell>
        <mxCell id="wF1ciALJRRrJ7pzbPHmN-97" value="" style="endArrow=none;html=1;rounded=0;" edge="1" parent="1">
          <mxGeometry width="50" height="50" relative="1" as="geometry">
            <mxPoint x="-485" y="625" as="sourcePoint" />
            <mxPoint x="-495" y="615" as="targetPoint" />
          </mxGeometry>
        </mxCell>
        <mxCell id="wF1ciALJRRrJ7pzbPHmN-98" value="..." style="text;html=1;align=center;verticalAlign=middle;whiteSpace=wrap;rounded=0;fontFamily=&quot;Latin Modern Mono 12&quot;;fontSize=12;fontStyle=1" vertex="1" parent="1">
          <mxGeometry x="-505" y="620" width="20" height="15" as="geometry" />
        </mxCell>
        <mxCell id="wF1ciALJRRrJ7pzbPHmN-99" value="" style="ellipse;whiteSpace=wrap;html=1;fillColor=#00CC00;" vertex="1" parent="1">
          <mxGeometry x="-480" y="595" width="20" height="20" as="geometry" />
        </mxCell>
        <mxCell id="wF1ciALJRRrJ7pzbPHmN-100" value="" style="endArrow=none;html=1;rounded=0;" edge="1" parent="1">
          <mxGeometry width="50" height="50" relative="1" as="geometry">
            <mxPoint x="-480" y="625" as="sourcePoint" />
            <mxPoint x="-470" y="615" as="targetPoint" />
          </mxGeometry>
        </mxCell>
        <mxCell id="wF1ciALJRRrJ7pzbPHmN-101" value="" style="endArrow=none;html=1;rounded=0;" edge="1" parent="1">
          <mxGeometry width="50" height="50" relative="1" as="geometry">
            <mxPoint x="-460" y="625" as="sourcePoint" />
            <mxPoint x="-470" y="615" as="targetPoint" />
          </mxGeometry>
        </mxCell>
        <mxCell id="wF1ciALJRRrJ7pzbPHmN-102" value="..." style="text;html=1;align=center;verticalAlign=middle;whiteSpace=wrap;rounded=0;fontFamily=&quot;Latin Modern Mono 12&quot;;fontSize=12;fontStyle=1" vertex="1" parent="1">
          <mxGeometry x="-480" y="620" width="20" height="15" as="geometry" />
        </mxCell>
        <mxCell id="wF1ciALJRRrJ7pzbPHmN-103" value="" style="ellipse;whiteSpace=wrap;html=1;fillColor=#00CC00;" vertex="1" parent="1">
          <mxGeometry x="-455" y="595" width="20" height="20" as="geometry" />
        </mxCell>
        <mxCell id="wF1ciALJRRrJ7pzbPHmN-104" value="" style="endArrow=none;html=1;rounded=0;" edge="1" parent="1">
          <mxGeometry width="50" height="50" relative="1" as="geometry">
            <mxPoint x="-455" y="625" as="sourcePoint" />
            <mxPoint x="-445" y="615" as="targetPoint" />
          </mxGeometry>
        </mxCell>
        <mxCell id="wF1ciALJRRrJ7pzbPHmN-105" value="" style="endArrow=none;html=1;rounded=0;" edge="1" parent="1">
          <mxGeometry width="50" height="50" relative="1" as="geometry">
            <mxPoint x="-435" y="625" as="sourcePoint" />
            <mxPoint x="-445" y="615" as="targetPoint" />
          </mxGeometry>
        </mxCell>
        <mxCell id="wF1ciALJRRrJ7pzbPHmN-106" value="..." style="text;html=1;align=center;verticalAlign=middle;whiteSpace=wrap;rounded=0;fontFamily=&quot;Latin Modern Mono 12&quot;;fontSize=12;fontStyle=1" vertex="1" parent="1">
          <mxGeometry x="-455" y="620" width="20" height="15" as="geometry" />
        </mxCell>
        <mxCell id="wF1ciALJRRrJ7pzbPHmN-107" value="" style="ellipse;whiteSpace=wrap;html=1;" vertex="1" parent="1">
          <mxGeometry x="-430" y="595" width="20" height="20" as="geometry" />
        </mxCell>
        <mxCell id="wF1ciALJRRrJ7pzbPHmN-108" value="" style="endArrow=none;html=1;rounded=0;" edge="1" parent="1">
          <mxGeometry width="50" height="50" relative="1" as="geometry">
            <mxPoint x="-430" y="625" as="sourcePoint" />
            <mxPoint x="-420" y="615" as="targetPoint" />
          </mxGeometry>
        </mxCell>
        <mxCell id="wF1ciALJRRrJ7pzbPHmN-109" value="" style="endArrow=none;html=1;rounded=0;" edge="1" parent="1">
          <mxGeometry width="50" height="50" relative="1" as="geometry">
            <mxPoint x="-410" y="625" as="sourcePoint" />
            <mxPoint x="-420" y="615" as="targetPoint" />
          </mxGeometry>
        </mxCell>
        <mxCell id="wF1ciALJRRrJ7pzbPHmN-110" value="..." style="text;html=1;align=center;verticalAlign=middle;whiteSpace=wrap;rounded=0;fontFamily=&quot;Latin Modern Mono 12&quot;;fontSize=12;fontStyle=1" vertex="1" parent="1">
          <mxGeometry x="-430" y="620" width="20" height="15" as="geometry" />
        </mxCell>
        <mxCell id="wF1ciALJRRrJ7pzbPHmN-111" value="" style="ellipse;whiteSpace=wrap;html=1;" vertex="1" parent="1">
          <mxGeometry x="-405" y="595" width="20" height="20" as="geometry" />
        </mxCell>
        <mxCell id="wF1ciALJRRrJ7pzbPHmN-112" value="" style="endArrow=none;html=1;rounded=0;" edge="1" parent="1">
          <mxGeometry width="50" height="50" relative="1" as="geometry">
            <mxPoint x="-405" y="625" as="sourcePoint" />
            <mxPoint x="-395" y="615" as="targetPoint" />
          </mxGeometry>
        </mxCell>
        <mxCell id="wF1ciALJRRrJ7pzbPHmN-113" value="" style="endArrow=none;html=1;rounded=0;" edge="1" parent="1">
          <mxGeometry width="50" height="50" relative="1" as="geometry">
            <mxPoint x="-385" y="625" as="sourcePoint" />
            <mxPoint x="-395" y="615" as="targetPoint" />
          </mxGeometry>
        </mxCell>
        <mxCell id="wF1ciALJRRrJ7pzbPHmN-114" value="..." style="text;html=1;align=center;verticalAlign=middle;whiteSpace=wrap;rounded=0;fontFamily=&quot;Latin Modern Mono 12&quot;;fontSize=12;fontStyle=1" vertex="1" parent="1">
          <mxGeometry x="-405" y="620" width="20" height="15" as="geometry" />
        </mxCell>
        <mxCell id="wF1ciALJRRrJ7pzbPHmN-115" value="" style="ellipse;whiteSpace=wrap;html=1;" vertex="1" parent="1">
          <mxGeometry x="-780" y="595" width="20" height="20" as="geometry" />
        </mxCell>
        <mxCell id="wF1ciALJRRrJ7pzbPHmN-116" value="" style="endArrow=none;html=1;rounded=0;" edge="1" parent="1">
          <mxGeometry width="50" height="50" relative="1" as="geometry">
            <mxPoint x="-780" y="625" as="sourcePoint" />
            <mxPoint x="-770" y="615" as="targetPoint" />
          </mxGeometry>
        </mxCell>
        <mxCell id="wF1ciALJRRrJ7pzbPHmN-117" value="" style="endArrow=none;html=1;rounded=0;" edge="1" parent="1">
          <mxGeometry width="50" height="50" relative="1" as="geometry">
            <mxPoint x="-760" y="625" as="sourcePoint" />
            <mxPoint x="-770" y="615" as="targetPoint" />
          </mxGeometry>
        </mxCell>
        <mxCell id="wF1ciALJRRrJ7pzbPHmN-118" value="..." style="text;html=1;align=center;verticalAlign=middle;whiteSpace=wrap;rounded=0;fontFamily=&quot;Latin Modern Mono 12&quot;;fontSize=12;fontStyle=1" vertex="1" parent="1">
          <mxGeometry x="-780" y="620" width="20" height="15" as="geometry" />
        </mxCell>
        <mxCell id="wF1ciALJRRrJ7pzbPHmN-119" value="" style="ellipse;whiteSpace=wrap;html=1;" vertex="1" parent="1">
          <mxGeometry x="-755" y="595" width="20" height="20" as="geometry" />
        </mxCell>
        <mxCell id="wF1ciALJRRrJ7pzbPHmN-120" value="" style="endArrow=none;html=1;rounded=0;" edge="1" parent="1">
          <mxGeometry width="50" height="50" relative="1" as="geometry">
            <mxPoint x="-755" y="625" as="sourcePoint" />
            <mxPoint x="-745" y="615" as="targetPoint" />
          </mxGeometry>
        </mxCell>
        <mxCell id="wF1ciALJRRrJ7pzbPHmN-121" value="" style="endArrow=none;html=1;rounded=0;" edge="1" parent="1">
          <mxGeometry width="50" height="50" relative="1" as="geometry">
            <mxPoint x="-735" y="625" as="sourcePoint" />
            <mxPoint x="-745" y="615" as="targetPoint" />
          </mxGeometry>
        </mxCell>
        <mxCell id="wF1ciALJRRrJ7pzbPHmN-122" value="..." style="text;html=1;align=center;verticalAlign=middle;whiteSpace=wrap;rounded=0;fontFamily=&quot;Latin Modern Mono 12&quot;;fontSize=12;fontStyle=1" vertex="1" parent="1">
          <mxGeometry x="-755" y="620" width="20" height="15" as="geometry" />
        </mxCell>
        <mxCell id="wF1ciALJRRrJ7pzbPHmN-123" value="" style="ellipse;whiteSpace=wrap;html=1;fillColor=#00CC00;" vertex="1" parent="1">
          <mxGeometry x="-730" y="595" width="20" height="20" as="geometry" />
        </mxCell>
        <mxCell id="wF1ciALJRRrJ7pzbPHmN-124" value="" style="endArrow=none;html=1;rounded=0;" edge="1" parent="1">
          <mxGeometry width="50" height="50" relative="1" as="geometry">
            <mxPoint x="-730" y="625" as="sourcePoint" />
            <mxPoint x="-720" y="615" as="targetPoint" />
          </mxGeometry>
        </mxCell>
        <mxCell id="wF1ciALJRRrJ7pzbPHmN-125" value="" style="endArrow=none;html=1;rounded=0;" edge="1" parent="1">
          <mxGeometry width="50" height="50" relative="1" as="geometry">
            <mxPoint x="-710" y="625" as="sourcePoint" />
            <mxPoint x="-720" y="615" as="targetPoint" />
          </mxGeometry>
        </mxCell>
        <mxCell id="wF1ciALJRRrJ7pzbPHmN-126" value="..." style="text;html=1;align=center;verticalAlign=middle;whiteSpace=wrap;rounded=0;fontFamily=&quot;Latin Modern Mono 12&quot;;fontSize=12;fontStyle=1" vertex="1" parent="1">
          <mxGeometry x="-730" y="620" width="20" height="15" as="geometry" />
        </mxCell>
        <mxCell id="wF1ciALJRRrJ7pzbPHmN-127" value="" style="ellipse;whiteSpace=wrap;html=1;fillColor=#00CC00;" vertex="1" parent="1">
          <mxGeometry x="-705" y="595" width="20" height="20" as="geometry" />
        </mxCell>
        <mxCell id="wF1ciALJRRrJ7pzbPHmN-128" value="" style="endArrow=none;html=1;rounded=0;" edge="1" parent="1">
          <mxGeometry width="50" height="50" relative="1" as="geometry">
            <mxPoint x="-705" y="625" as="sourcePoint" />
            <mxPoint x="-695" y="615" as="targetPoint" />
          </mxGeometry>
        </mxCell>
        <mxCell id="wF1ciALJRRrJ7pzbPHmN-129" value="" style="endArrow=none;html=1;rounded=0;" edge="1" parent="1">
          <mxGeometry width="50" height="50" relative="1" as="geometry">
            <mxPoint x="-685" y="625" as="sourcePoint" />
            <mxPoint x="-695" y="615" as="targetPoint" />
          </mxGeometry>
        </mxCell>
        <mxCell id="wF1ciALJRRrJ7pzbPHmN-130" value="..." style="text;html=1;align=center;verticalAlign=middle;whiteSpace=wrap;rounded=0;fontFamily=&quot;Latin Modern Mono 12&quot;;fontSize=12;fontStyle=1" vertex="1" parent="1">
          <mxGeometry x="-705" y="620" width="20" height="15" as="geometry" />
        </mxCell>
        <mxCell id="wF1ciALJRRrJ7pzbPHmN-131" value="" style="ellipse;whiteSpace=wrap;html=1;" vertex="1" parent="1">
          <mxGeometry x="-680" y="595" width="20" height="20" as="geometry" />
        </mxCell>
        <mxCell id="wF1ciALJRRrJ7pzbPHmN-132" value="" style="endArrow=none;html=1;rounded=0;" edge="1" parent="1">
          <mxGeometry width="50" height="50" relative="1" as="geometry">
            <mxPoint x="-680" y="625" as="sourcePoint" />
            <mxPoint x="-670" y="615" as="targetPoint" />
          </mxGeometry>
        </mxCell>
        <mxCell id="wF1ciALJRRrJ7pzbPHmN-133" value="" style="endArrow=none;html=1;rounded=0;" edge="1" parent="1">
          <mxGeometry width="50" height="50" relative="1" as="geometry">
            <mxPoint x="-660" y="625" as="sourcePoint" />
            <mxPoint x="-670" y="615" as="targetPoint" />
          </mxGeometry>
        </mxCell>
        <mxCell id="wF1ciALJRRrJ7pzbPHmN-134" value="..." style="text;html=1;align=center;verticalAlign=middle;whiteSpace=wrap;rounded=0;fontFamily=&quot;Latin Modern Mono 12&quot;;fontSize=12;fontStyle=1" vertex="1" parent="1">
          <mxGeometry x="-680" y="620" width="20" height="15" as="geometry" />
        </mxCell>
        <mxCell id="wF1ciALJRRrJ7pzbPHmN-135" value="" style="ellipse;whiteSpace=wrap;html=1;" vertex="1" parent="1">
          <mxGeometry x="-655" y="595" width="20" height="20" as="geometry" />
        </mxCell>
        <mxCell id="wF1ciALJRRrJ7pzbPHmN-136" value="" style="endArrow=none;html=1;rounded=0;" edge="1" parent="1">
          <mxGeometry width="50" height="50" relative="1" as="geometry">
            <mxPoint x="-655" y="625" as="sourcePoint" />
            <mxPoint x="-645" y="615" as="targetPoint" />
          </mxGeometry>
        </mxCell>
        <mxCell id="wF1ciALJRRrJ7pzbPHmN-137" value="" style="endArrow=none;html=1;rounded=0;" edge="1" parent="1">
          <mxGeometry width="50" height="50" relative="1" as="geometry">
            <mxPoint x="-635" y="625" as="sourcePoint" />
            <mxPoint x="-645" y="615" as="targetPoint" />
          </mxGeometry>
        </mxCell>
        <mxCell id="wF1ciALJRRrJ7pzbPHmN-138" value="..." style="text;html=1;align=center;verticalAlign=middle;whiteSpace=wrap;rounded=0;fontFamily=&quot;Latin Modern Mono 12&quot;;fontSize=12;fontStyle=1" vertex="1" parent="1">
          <mxGeometry x="-655" y="620" width="20" height="15" as="geometry" />
        </mxCell>
        <mxCell id="wF1ciALJRRrJ7pzbPHmN-139" value="" style="ellipse;whiteSpace=wrap;html=1;" vertex="1" parent="1">
          <mxGeometry x="-630" y="595" width="20" height="20" as="geometry" />
        </mxCell>
        <mxCell id="wF1ciALJRRrJ7pzbPHmN-140" value="" style="endArrow=none;html=1;rounded=0;" edge="1" parent="1">
          <mxGeometry width="50" height="50" relative="1" as="geometry">
            <mxPoint x="-630" y="625" as="sourcePoint" />
            <mxPoint x="-620" y="615" as="targetPoint" />
          </mxGeometry>
        </mxCell>
        <mxCell id="wF1ciALJRRrJ7pzbPHmN-141" value="" style="endArrow=none;html=1;rounded=0;" edge="1" parent="1">
          <mxGeometry width="50" height="50" relative="1" as="geometry">
            <mxPoint x="-610" y="625" as="sourcePoint" />
            <mxPoint x="-620" y="615" as="targetPoint" />
          </mxGeometry>
        </mxCell>
        <mxCell id="wF1ciALJRRrJ7pzbPHmN-142" value="..." style="text;html=1;align=center;verticalAlign=middle;whiteSpace=wrap;rounded=0;fontFamily=&quot;Latin Modern Mono 12&quot;;fontSize=12;fontStyle=1" vertex="1" parent="1">
          <mxGeometry x="-630" y="620" width="20" height="15" as="geometry" />
        </mxCell>
        <mxCell id="wF1ciALJRRrJ7pzbPHmN-143" value="" style="ellipse;whiteSpace=wrap;html=1;fillColor=#00CC00;" vertex="1" parent="1">
          <mxGeometry x="-605" y="595" width="20" height="20" as="geometry" />
        </mxCell>
        <mxCell id="wF1ciALJRRrJ7pzbPHmN-144" value="" style="endArrow=none;html=1;rounded=0;" edge="1" parent="1">
          <mxGeometry width="50" height="50" relative="1" as="geometry">
            <mxPoint x="-605" y="625" as="sourcePoint" />
            <mxPoint x="-595" y="615" as="targetPoint" />
          </mxGeometry>
        </mxCell>
        <mxCell id="wF1ciALJRRrJ7pzbPHmN-145" value="" style="endArrow=none;html=1;rounded=0;" edge="1" parent="1">
          <mxGeometry width="50" height="50" relative="1" as="geometry">
            <mxPoint x="-585" y="625" as="sourcePoint" />
            <mxPoint x="-595" y="615" as="targetPoint" />
          </mxGeometry>
        </mxCell>
        <mxCell id="wF1ciALJRRrJ7pzbPHmN-146" value="..." style="text;html=1;align=center;verticalAlign=middle;whiteSpace=wrap;rounded=0;fontFamily=&quot;Latin Modern Mono 12&quot;;fontSize=12;fontStyle=1" vertex="1" parent="1">
          <mxGeometry x="-605" y="620" width="20" height="15" as="geometry" />
        </mxCell>
        <mxCell id="wF1ciALJRRrJ7pzbPHmN-147" value="" style="ellipse;whiteSpace=wrap;html=1;" vertex="1" parent="1">
          <mxGeometry x="-725" y="535" width="20" height="20" as="geometry" />
        </mxCell>
        <mxCell id="wF1ciALJRRrJ7pzbPHmN-148" value="" style="ellipse;whiteSpace=wrap;html=1;fillColor=#00CC00;" vertex="1" parent="1">
          <mxGeometry x="-460" y="535" width="20" height="20" as="geometry" />
        </mxCell>
        <mxCell id="wF1ciALJRRrJ7pzbPHmN-149" value="" style="ellipse;whiteSpace=wrap;html=1;fillColor=#00CC00;" vertex="1" parent="1">
          <mxGeometry x="-635" y="535" width="20" height="20" as="geometry" />
        </mxCell>
        <mxCell id="wF1ciALJRRrJ7pzbPHmN-150" value="" style="ellipse;whiteSpace=wrap;html=1;fillColor=#FFFFFF;" vertex="1" parent="1">
          <mxGeometry x="-550" y="535" width="20" height="20" as="geometry" />
        </mxCell>
        <mxCell id="wF1ciALJRRrJ7pzbPHmN-151" value="" style="ellipse;whiteSpace=wrap;html=1;fillColor=#00CC00;" vertex="1" parent="1">
          <mxGeometry x="-587.5" y="475" width="20" height="20" as="geometry" />
        </mxCell>
        <mxCell id="wF1ciALJRRrJ7pzbPHmN-152" value="" style="endArrow=none;html=1;rounded=0;" edge="1" parent="1">
          <mxGeometry width="50" height="50" relative="1" as="geometry">
            <mxPoint x="-715" y="535" as="sourcePoint" />
            <mxPoint x="-577.5" y="495" as="targetPoint" />
          </mxGeometry>
        </mxCell>
        <mxCell id="wF1ciALJRRrJ7pzbPHmN-153" value="" style="endArrow=none;html=1;rounded=0;" edge="1" parent="1">
          <mxGeometry width="50" height="50" relative="1" as="geometry">
            <mxPoint x="-450" y="535" as="sourcePoint" />
            <mxPoint x="-577.5" y="495" as="targetPoint" />
          </mxGeometry>
        </mxCell>
        <mxCell id="wF1ciALJRRrJ7pzbPHmN-155" value="" style="endArrow=none;html=1;rounded=0;" edge="1" parent="1">
          <mxGeometry width="50" height="50" relative="1" as="geometry">
            <mxPoint x="-625" y="535" as="sourcePoint" />
            <mxPoint x="-577.5" y="495" as="targetPoint" />
          </mxGeometry>
        </mxCell>
        <mxCell id="wF1ciALJRRrJ7pzbPHmN-156" value="" style="endArrow=none;html=1;rounded=0;" edge="1" parent="1">
          <mxGeometry width="50" height="50" relative="1" as="geometry">
            <mxPoint x="-540" y="535" as="sourcePoint" />
            <mxPoint x="-577.5" y="495" as="targetPoint" />
          </mxGeometry>
        </mxCell>
        <mxCell id="wF1ciALJRRrJ7pzbPHmN-157" value="" style="endArrow=none;html=1;rounded=0;" edge="1" parent="1">
          <mxGeometry width="50" height="50" relative="1" as="geometry">
            <mxPoint x="-770" y="595" as="sourcePoint" />
            <mxPoint x="-715" y="555" as="targetPoint" />
          </mxGeometry>
        </mxCell>
        <mxCell id="wF1ciALJRRrJ7pzbPHmN-158" value="" style="endArrow=none;html=1;rounded=0;" edge="1" parent="1">
          <mxGeometry width="50" height="50" relative="1" as="geometry">
            <mxPoint x="-745" y="595" as="sourcePoint" />
            <mxPoint x="-715" y="555" as="targetPoint" />
          </mxGeometry>
        </mxCell>
        <mxCell id="wF1ciALJRRrJ7pzbPHmN-159" value="" style="endArrow=none;html=1;rounded=0;" edge="1" parent="1">
          <mxGeometry width="50" height="50" relative="1" as="geometry">
            <mxPoint x="-720" y="595" as="sourcePoint" />
            <mxPoint x="-715" y="555" as="targetPoint" />
          </mxGeometry>
        </mxCell>
        <mxCell id="wF1ciALJRRrJ7pzbPHmN-160" value="" style="endArrow=none;html=1;rounded=0;" edge="1" parent="1">
          <mxGeometry width="50" height="50" relative="1" as="geometry">
            <mxPoint x="-695" y="595" as="sourcePoint" />
            <mxPoint x="-715" y="555" as="targetPoint" />
          </mxGeometry>
        </mxCell>
        <mxCell id="wF1ciALJRRrJ7pzbPHmN-161" value="" style="endArrow=none;html=1;rounded=0;" edge="1" parent="1">
          <mxGeometry width="50" height="50" relative="1" as="geometry">
            <mxPoint x="-470" y="595" as="sourcePoint" />
            <mxPoint x="-450" y="555" as="targetPoint" />
          </mxGeometry>
        </mxCell>
        <mxCell id="wF1ciALJRRrJ7pzbPHmN-162" value="" style="endArrow=none;html=1;rounded=0;" edge="1" parent="1">
          <mxGeometry width="50" height="50" relative="1" as="geometry">
            <mxPoint x="-445" y="595" as="sourcePoint" />
            <mxPoint x="-450" y="555" as="targetPoint" />
          </mxGeometry>
        </mxCell>
        <mxCell id="wF1ciALJRRrJ7pzbPHmN-163" value="" style="endArrow=none;html=1;rounded=0;" edge="1" parent="1">
          <mxGeometry width="50" height="50" relative="1" as="geometry">
            <mxPoint x="-420" y="595" as="sourcePoint" />
            <mxPoint x="-450" y="555" as="targetPoint" />
          </mxGeometry>
        </mxCell>
        <mxCell id="wF1ciALJRRrJ7pzbPHmN-164" value="" style="endArrow=none;html=1;rounded=0;" edge="1" parent="1">
          <mxGeometry width="50" height="50" relative="1" as="geometry">
            <mxPoint x="-395" y="595" as="sourcePoint" />
            <mxPoint x="-450" y="555" as="targetPoint" />
          </mxGeometry>
        </mxCell>
        <mxCell id="wF1ciALJRRrJ7pzbPHmN-165" value="" style="endArrow=none;html=1;rounded=0;" edge="1" parent="1">
          <mxGeometry width="50" height="50" relative="1" as="geometry">
            <mxPoint x="-670" y="595" as="sourcePoint" />
            <mxPoint x="-625" y="555" as="targetPoint" />
          </mxGeometry>
        </mxCell>
        <mxCell id="wF1ciALJRRrJ7pzbPHmN-166" value="" style="endArrow=none;html=1;rounded=0;" edge="1" parent="1">
          <mxGeometry width="50" height="50" relative="1" as="geometry">
            <mxPoint x="-645" y="595" as="sourcePoint" />
            <mxPoint x="-625" y="555" as="targetPoint" />
          </mxGeometry>
        </mxCell>
        <mxCell id="wF1ciALJRRrJ7pzbPHmN-167" value="" style="endArrow=none;html=1;rounded=0;" edge="1" parent="1">
          <mxGeometry width="50" height="50" relative="1" as="geometry">
            <mxPoint x="-620" y="595" as="sourcePoint" />
            <mxPoint x="-625" y="555" as="targetPoint" />
          </mxGeometry>
        </mxCell>
        <mxCell id="wF1ciALJRRrJ7pzbPHmN-168" value="" style="endArrow=none;html=1;rounded=0;" edge="1" parent="1">
          <mxGeometry width="50" height="50" relative="1" as="geometry">
            <mxPoint x="-595" y="595" as="sourcePoint" />
            <mxPoint x="-625" y="555" as="targetPoint" />
          </mxGeometry>
        </mxCell>
        <mxCell id="wF1ciALJRRrJ7pzbPHmN-169" value="" style="endArrow=none;html=1;rounded=0;" edge="1" parent="1">
          <mxGeometry width="50" height="50" relative="1" as="geometry">
            <mxPoint x="-570" y="595" as="sourcePoint" />
            <mxPoint x="-540" y="555" as="targetPoint" />
          </mxGeometry>
        </mxCell>
        <mxCell id="wF1ciALJRRrJ7pzbPHmN-170" value="" style="endArrow=none;html=1;rounded=0;" edge="1" parent="1">
          <mxGeometry width="50" height="50" relative="1" as="geometry">
            <mxPoint x="-545" y="595" as="sourcePoint" />
            <mxPoint x="-540" y="555" as="targetPoint" />
          </mxGeometry>
        </mxCell>
        <mxCell id="wF1ciALJRRrJ7pzbPHmN-171" value="" style="endArrow=none;html=1;rounded=0;" edge="1" parent="1">
          <mxGeometry width="50" height="50" relative="1" as="geometry">
            <mxPoint x="-520" y="595" as="sourcePoint" />
            <mxPoint x="-540" y="555" as="targetPoint" />
          </mxGeometry>
        </mxCell>
        <mxCell id="wF1ciALJRRrJ7pzbPHmN-172" value="" style="endArrow=none;html=1;rounded=0;" edge="1" parent="1">
          <mxGeometry width="50" height="50" relative="1" as="geometry">
            <mxPoint x="-495" y="595" as="sourcePoint" />
            <mxPoint x="-540" y="555" as="targetPoint" />
          </mxGeometry>
        </mxCell>
      </root>
    </mxGraphModel>
  </diagram>
</mxfile>
